<svg width="415" height="445" viewBox="0 0 415 445" fill="none" xmlns="http://www.w3.org/2000/svg">
<g filter="url(#filter0_d_37200_109804)">
<path fill-rule="evenodd" clip-rule="evenodd" d="M139.95 8.49707H39.9355C35.5173 8.49707 31.9355 12.0788 31.9355 16.4971V382.504C31.9355 386.922 35.5173 390.504 39.9355 390.504H375.936C380.354 390.504 383.936 386.922 383.936 382.504V16.4971C383.936 12.0788 380.354 8.49707 375.936 8.49707H275.936V35.5189C275.936 43.3131 272.772 49.1588 266.22 52.9413C258.313 57.4688 250.348 62.025 242.384 66.5812C234.42 71.1373 226.456 75.6935 218.548 80.2211C211.657 84.0035 204.766 84.2328 197.762 80.2211C189.855 75.6936 181.89 71.1947 173.926 66.6959C165.962 62.197 157.998 57.6981 150.09 53.1705C143.764 49.388 140.036 44.0009 140.036 36.5505C139.925 27.2788 139.923 17.8956 139.95 8.49707Z" fill="white"/>
</g>
<defs>
<filter id="filter0_d_37200_109804" x="0.935547" y="0.49707" width="414" height="444.007" filterUnits="userSpaceOnUse" color-interpolation-filters="sRGB">
<feFlood flood-opacity="0" result="BackgroundImageFix"/>
<feColorMatrix in="SourceAlpha" type="matrix" values="0 0 0 0 0 0 0 0 0 0 0 0 0 0 0 0 0 0 127 0" result="hardAlpha"/>
<feOffset dy="23"/>
<feGaussianBlur stdDeviation="15.5"/>
<feColorMatrix type="matrix" values="0 0 0 0 0 0 0 0 0 0 0 0 0 0 0 0 0 0 0.09 0"/>
<feBlend mode="normal" in2="BackgroundImageFix" result="effect1_dropShadow_37200_109804"/>
<feBlend mode="normal" in="SourceGraphic" in2="effect1_dropShadow_37200_109804" result="shape"/>
</filter>
</defs>
</svg>
