<svg width="200" height="224" viewBox="0 0 200 224" fill="none" xmlns="http://www.w3.org/2000/svg">
<g clip-path="url(#clip0_5872_36161)">
<path fill-rule="evenodd" clip-rule="evenodd" d="M188.312 47.4918L111.574 3.13609C104.39 -1.02583 95.496 -1.02583 88.3124 3.13609L11.5735 47.4918C7.98176 49.6013 5.07412 52.566 3.07868 56.0437C1.25428 59.2364 0.22805 62.8852 0.0570125 66.7051C0.0570125 67.0471 0 67.3892 0 67.6743V156.386C0 164.71 4.44698 172.406 11.6306 176.568L88.3694 220.924C91.8472 222.919 95.7241 223.946 99.6009 224.003C99.7149 224.003 99.886 224.003 100 224.003C103.991 224.003 108.039 222.976 111.631 220.867L188.369 176.511C191.961 174.402 194.869 171.437 196.864 167.959C198.689 164.767 199.715 161.118 199.886 157.298C199.886 156.956 199.943 156.614 199.943 156.329V67.6743C199.943 59.2934 195.553 51.6538 188.312 47.4918Z" fill="#1976D3"/>
<path fill-rule="evenodd" clip-rule="evenodd" d="M180.73 53.0221L110.605 12.4862C104.048 8.72336 95.8956 8.72336 89.3391 12.4862L19.2137 53.0221C15.964 54.9605 13.2844 57.6401 11.46 60.8328C9.80664 63.7405 8.83742 67.1042 8.66639 70.525C8.66639 70.81 8.60938 71.1521 8.60938 71.4372V152.509C8.60938 160.092 12.6573 167.161 19.2707 170.924L89.3962 211.46C92.5889 213.284 96.1236 214.197 99.6584 214.254C99.7724 214.254 99.8865 214.254 100.058 214.254C103.706 214.254 107.412 213.284 110.662 211.403L180.787 170.867C184.037 168.929 186.717 166.249 188.541 163.056C190.194 160.149 191.164 156.785 191.335 153.364C191.335 153.079 191.392 152.737 191.392 152.452V71.4942C191.335 63.8545 187.287 56.8419 180.73 53.0221Z" fill="#1976D3"/>
<path d="M100 215.223C99.8862 215.223 99.8292 215.223 99.7151 215.223C99.6581 215.223 99.6581 215.223 99.6011 215.223C95.8383 215.166 92.1325 214.139 88.9398 212.315L18.8143 171.722C11.9728 167.788 7.75391 160.434 7.75391 152.566V71.4941C7.75391 71.266 7.75391 71.095 7.81092 70.867C7.81092 70.7529 7.81092 70.6389 7.81092 70.5249C7.98196 66.9331 8.95117 63.4553 10.7186 60.4337C12.657 57.0699 15.4506 54.2763 18.7573 52.3379L88.8828 11.802C95.7243 7.8681 104.162 7.8681 111.004 11.802L181.129 52.3379C187.971 56.2717 192.189 63.6264 192.189 71.4941V152.566C192.189 152.794 192.189 152.965 192.132 153.193C192.132 153.307 192.132 153.421 192.132 153.535C191.961 157.127 190.992 160.605 189.225 163.626C187.286 166.99 184.493 169.784 181.186 171.722L111.061 212.258C107.754 214.196 103.877 215.223 100 215.223ZM99.9432 10.5477C96.4084 10.5477 92.8736 11.4599 89.7379 13.2843L19.6125 53.8202C16.5338 55.6446 13.9683 58.2102 12.2009 61.2888C10.6045 64.0825 9.69233 67.2752 9.5213 70.6389C9.5213 70.7529 9.5213 70.924 9.46428 71.038C9.46428 71.209 9.46428 71.3231 9.46428 71.4941V152.566C9.46428 159.864 13.3981 166.648 19.6695 170.24L89.795 210.776C92.7596 212.486 96.1804 213.398 99.6581 213.455C99.7151 213.455 99.8292 213.455 99.8862 213.455C99.9432 213.455 99.9432 213.455 100 213.455C103.592 213.455 107.127 212.486 110.205 210.719L180.331 170.183C183.41 168.358 185.975 165.793 187.743 162.714C189.339 159.921 190.251 156.728 190.422 153.364C190.422 153.25 190.422 153.079 190.479 152.965C190.479 152.794 190.479 152.68 190.479 152.509V71.4941C190.479 64.1965 186.545 57.412 180.274 53.8202L110.148 13.2843C107.013 11.4599 103.478 10.5477 99.9432 10.5477Z" fill="white"/>
<path fill-rule="evenodd" clip-rule="evenodd" d="M90.9358 152.509H88.6553L83.8662 163.797H86.3748L87.401 161.289H92.133L93.1593 163.797H95.7248L90.9358 152.509ZM89.7385 155.473L91.2208 159.122H88.2562L89.7385 155.473Z" fill="white"/>
<path fill-rule="evenodd" clip-rule="evenodd" d="M100.798 158.096L97.0923 152.623H99.9429L102.28 156.272L104.618 152.623H107.412L103.649 158.096L107.526 163.798H104.675L102.166 159.978L99.6579 163.798H96.8643L100.798 158.096Z" fill="white"/>
<path fill-rule="evenodd" clip-rule="evenodd" d="M114.367 152.565H110.034V163.74H114.367C117.902 163.74 120.296 161.345 120.296 158.153C120.296 154.96 117.902 152.565 114.367 152.565ZM117.731 158.153C117.731 160.148 116.363 161.516 114.367 161.516H112.486V154.789H114.367C116.363 154.789 117.731 156.157 117.731 158.153Z" fill="white"/>
<path fill-rule="evenodd" clip-rule="evenodd" d="M128.677 152.395C125.257 152.395 122.748 155.017 122.748 158.153C122.748 161.346 125.2 163.911 128.677 163.911C132.098 163.911 134.607 161.346 134.607 158.153C134.607 154.96 132.155 152.395 128.677 152.395ZM128.677 154.675C130.673 154.675 132.041 156.271 132.041 158.21C132.041 160.148 130.673 161.745 128.677 161.745C126.682 161.745 125.314 160.148 125.314 158.21C125.314 156.214 126.682 154.675 128.677 154.675Z" fill="white"/>
<path fill-rule="evenodd" clip-rule="evenodd" d="M137.058 152.565H139.681L142.645 157.297L145.553 152.565H148.175V163.74H145.724V156.442L142.588 161.231H142.531L139.396 156.499V163.74H137.001V152.565H137.058Z" fill="white"/>
<path fill-rule="evenodd" clip-rule="evenodd" d="M151.882 152.565H160.377V154.732H154.333V157.012H159.579V159.236H154.333V161.573H160.377V163.74H151.882V152.565Z" fill="white"/>
<path fill-rule="evenodd" clip-rule="evenodd" d="M45.8956 153.877H45.7246V154.048V155.758V155.929H45.8956H48.2902V162.372V162.543H48.4612H50.2856H50.4566V162.372V155.929H52.8512H53.0222V155.758V154.048V153.877H52.8512H45.8956Z" fill="white"/>
<path fill-rule="evenodd" clip-rule="evenodd" d="M55.416 153.877H58.7798C61.4023 153.877 63.3408 155.701 63.3408 158.21C63.3408 160.718 61.4023 162.543 58.7798 162.543H55.416V153.877ZM57.5255 160.547H58.7798C60.2051 160.547 61.1173 159.635 61.1173 158.21C61.1173 156.785 60.1481 155.872 58.7798 155.872H57.5255V160.547Z" fill="white"/>
<path fill-rule="evenodd" clip-rule="evenodd" d="M62.258 148.005C63.2842 148.005 64.0824 147.207 64.0824 146.181C64.0824 145.155 63.2842 144.356 62.258 144.356C61.2318 144.356 60.4336 145.155 60.4336 146.181C60.4336 147.15 61.2318 148.005 62.258 148.005Z" fill="white"/>
<path fill-rule="evenodd" clip-rule="evenodd" d="M77.7088 154.846H74.2881V152.565H83.5241V154.846H80.1034V163.74H77.6518L77.7088 154.846Z" fill="white"/>
<path fill-rule="evenodd" clip-rule="evenodd" d="M67.7312 148.575L66.3059 147.72C66.1349 148.119 65.9638 148.461 65.6788 148.803L67.1041 149.658C67.7882 150.057 68.2443 150.799 68.2443 151.597V164.824C68.2443 165.622 67.8452 166.363 67.1041 166.762L55.6446 173.376C54.9604 173.775 54.1052 173.775 53.4211 173.376L41.9615 166.762C41.2774 166.363 40.8213 165.622 40.8213 164.824V151.597C40.8213 150.799 41.2204 150.057 41.9615 149.658L53.4211 143.045C54.1052 142.646 54.9604 142.646 55.6446 143.045L58.3241 144.584C58.4952 144.185 58.6662 143.843 58.9513 143.501L56.2717 141.962C55.1884 141.334 53.8772 141.334 52.7939 141.962L41.3344 148.575C40.2512 149.202 39.624 150.342 39.624 151.597V164.824C39.624 166.078 40.3082 167.218 41.3344 167.845L52.7939 174.459C53.8772 175.086 55.1884 175.086 56.2717 174.459L67.7312 167.845C68.8145 167.218 69.4416 166.078 69.4416 164.824V151.597C69.4416 150.342 68.8145 149.202 67.7312 148.575Z" fill="white"/>
<path d="M43.6719 92.3037C43.6719 86.9445 47.3777 83.9229 51.3686 83.9229C53.478 83.9229 55.1884 84.8921 56.3287 86.0323L54.1052 88.7119C53.307 88.0278 52.5088 87.5146 51.4826 87.5146C49.6012 87.5146 48.0048 89.225 48.0048 92.1327C48.0048 95.0973 49.3731 96.8077 51.4256 96.8077C52.6799 96.8077 53.6491 96.1806 54.3332 95.4394L56.5567 98.062C55.1884 99.6583 53.364 100.399 51.3116 100.399C47.2067 100.457 43.6719 97.7199 43.6719 92.3037Z" fill="white"/>
<path d="M58.7236 84.208H69.0429V87.7428H62.9426V90.2513H68.1307V93.7861H62.9426V96.6367H69.271V100.172H58.7236V84.208Z" fill="white"/>
<path d="M72.3496 84.208H78.3929C81.8137 84.208 84.7783 85.4053 84.7783 89.3391C84.7783 93.216 81.8137 94.7553 78.3929 94.7553H76.5685V100.115H72.3496V84.208ZM78.1079 91.4486C79.7612 91.4486 80.6734 90.7074 80.6734 89.3391C80.6734 87.9708 79.8183 87.5147 78.1079 87.5147H76.5685V91.4486H78.1079ZM77.6518 93.6721L80.5024 90.8785L85.6906 100.115H80.9585L77.6518 93.6721Z" fill="white"/>
<path d="M90.3654 87.7428H86.1465V84.208H98.8033V87.7428H94.5843V100.172H90.3654V87.7428Z" fill="white"/>
<path d="M101.141 84.208H105.36V100.115H101.141V84.208Z" fill="white"/>
<path d="M108.895 84.208H119.271V87.7428H113.113V90.7645H118.416V94.2992H113.113V100.115H108.895V84.208Z" fill="white"/>
<path d="M122.007 84.208H126.226V100.115H122.007V84.208Z" fill="white"/>
<path d="M129.761 84.208H140.08V87.7428H133.98V90.2513H139.168V93.7861H133.98V96.6367H140.308V100.172H129.761V84.208Z" fill="white"/>
<path d="M143.387 84.208H148.119C152.965 84.208 156.329 86.4885 156.329 92.0757C156.329 97.663 153.022 100.115 148.404 100.115H143.444V84.208H143.387ZM147.891 96.7508C150.171 96.7508 151.996 95.8386 151.996 92.0757C151.996 88.3699 150.171 87.5718 147.891 87.5718H147.663V96.7508H147.891Z" fill="white"/>
<path d="M28.8486 115.679C28.8486 110.32 32.5544 107.298 36.5453 107.298C38.6548 107.298 40.3652 108.267 41.5054 109.407L39.2819 112.087C38.4838 111.403 37.6856 110.89 36.6594 110.89C34.7779 110.89 33.1816 112.6 33.1816 115.508C33.1816 118.472 34.5499 120.183 36.6023 120.183C37.8566 120.183 38.8258 119.556 39.51 118.814L41.7335 121.437C40.3652 123.033 38.5408 123.774 36.4883 123.774C32.3834 123.832 28.8486 121.095 28.8486 115.679Z" fill="white"/>
<path d="M42.2461 115.451C42.2461 110.206 45.2107 107.241 49.6577 107.241C54.0477 107.241 57.0694 110.206 57.0694 115.451C57.0694 120.696 54.1047 123.775 49.6577 123.775C45.2678 123.832 42.2461 120.696 42.2461 115.451ZM52.7364 115.451C52.7364 112.543 51.5391 110.89 49.6577 110.89C47.7193 110.89 46.579 112.543 46.579 115.451C46.579 118.359 47.7763 120.183 49.6577 120.183C51.5962 120.183 52.7364 118.359 52.7364 115.451Z" fill="white"/>
<path d="M59.9209 107.583H64.2539L67.7886 114.71L69.328 118.301H69.442C69.271 116.591 68.9289 114.196 68.9289 112.201V107.583H72.9768V123.49H68.6438L65.109 116.363L63.5697 112.828H63.4557C63.6267 114.653 63.9688 116.933 63.9688 118.929V123.547H59.9209V107.583Z" fill="white"/>
<path d="M75.4277 121.551L77.8223 118.644C78.9625 119.556 80.3878 120.183 81.5281 120.183C82.7824 120.183 83.3525 119.784 83.3525 119.043C83.3525 118.302 82.5543 118.017 81.186 117.503L79.1906 116.648C77.4802 115.964 75.9979 114.539 75.9979 112.201C75.9979 109.465 78.4494 107.241 81.9272 107.241C83.7516 107.241 85.747 107.925 87.2293 109.351L85.1199 111.973C84.0366 111.232 83.1244 110.833 81.9272 110.833C80.9009 110.833 80.2738 111.175 80.2738 111.916C80.2738 112.657 81.186 112.942 82.6113 113.513L84.5497 114.254C86.5452 115.052 87.6854 116.42 87.6854 118.644C87.6854 121.323 85.4049 123.718 81.4711 123.718C79.4186 123.832 77.1381 123.091 75.4277 121.551Z" fill="white"/>
<path d="M90.1367 115.793V107.583H94.3556V116.306C94.3556 119.157 95.0968 120.183 96.7502 120.183C98.4035 120.183 99.2017 119.157 99.2017 116.306V107.583H103.25V115.793C103.25 121.209 101.197 123.775 96.7502 123.775C92.2462 123.832 90.1367 121.266 90.1367 115.793Z" fill="white"/>
<path d="M106.671 107.583H110.89V120.012H116.933V123.547H106.671V107.583Z" fill="white"/>
<path d="M119.783 111.118H115.564V107.583H128.221V111.118H124.002V123.547H119.783V111.118Z" fill="white"/>
<path d="M132.441 107.583H137.515L142.361 123.49H137.914L136.089 115.736C135.69 114.196 135.291 112.258 134.892 110.662H134.778C134.436 112.258 134.037 114.196 133.638 115.736L131.813 123.49H127.48L132.441 107.583ZM131.072 116.876H138.883V120.126H131.072V116.876Z" fill="white"/>
<path d="M143.672 107.583H148.005L151.54 114.71L153.079 118.301H153.193C153.022 116.591 152.68 114.196 152.68 112.201V107.583H156.728V123.49H152.395L148.86 116.363L147.321 112.828H147.207C147.378 114.653 147.72 116.933 147.72 118.929V123.547H143.672V107.583Z" fill="white"/>
<path d="M163.17 111.118H158.951V107.583H171.608V111.118H167.389V123.547H163.17V111.118Z" fill="white"/>
<path d="M129.818 55.5302C129.704 55.1881 129.419 54.903 129.02 54.903L124.003 54.4469L122.007 49.8289C121.836 49.4868 121.551 49.2588 121.152 49.2588C120.81 49.2588 120.468 49.4868 120.297 49.8289L118.301 54.4469L113.284 54.903C112.942 54.96 112.6 55.1881 112.486 55.5302C112.372 55.8722 112.486 56.2713 112.771 56.4994L116.534 59.8061L115.394 64.7092C115.337 65.0513 115.451 65.4504 115.736 65.6784C115.907 65.7924 116.078 65.8494 116.249 65.8494C116.42 65.8494 116.591 65.7924 116.705 65.7354L121.038 63.1699L125.371 65.7354C125.713 65.9065 126.112 65.9065 126.397 65.6784C126.682 65.4504 126.853 65.1083 126.739 64.7092L125.599 59.8061L129.362 56.4994C129.818 56.2713 129.932 55.8722 129.818 55.5302Z" fill="#FFC107"/>
<path d="M108.609 55.5302C108.495 55.1881 108.21 54.903 107.811 54.903L102.794 54.4469L100.798 49.8289C100.627 49.4868 100.342 49.2588 99.943 49.2588C99.6009 49.2588 99.2588 49.4868 99.0878 49.8289L97.0924 54.4469L92.0753 54.903C91.7332 54.96 91.3911 55.1881 91.2771 55.5302C91.1631 55.8722 91.2771 56.2713 91.5622 56.4994L95.325 59.8061L94.1847 64.7092C94.1277 65.0513 94.2417 65.4504 94.5268 65.6784C94.6978 65.7924 94.8689 65.8494 95.0399 65.8494C95.211 65.8494 95.382 65.7924 95.496 65.7354L99.829 63.1699L104.162 65.7354C104.504 65.9065 104.903 65.9065 105.188 65.6784C105.473 65.4504 105.644 65.1083 105.53 64.7092L104.39 59.8061L108.153 56.4994C108.609 56.2713 108.723 55.8722 108.609 55.5302Z" fill="#FFC107"/>
<path d="M87.4575 55.5302C87.3435 55.1881 87.0585 54.903 86.6594 54.903L81.6423 54.4469L79.6468 49.8289C79.4758 49.4868 79.1907 49.2588 78.7916 49.2588C78.3925 49.2588 78.1075 49.4868 77.9364 49.8289L75.941 54.4469L70.9239 54.903C70.5818 54.96 70.2398 55.1881 70.1257 55.5302C70.0117 55.8722 70.1257 56.2713 70.4108 56.4994L74.1736 59.8061L73.0334 64.7092C72.9764 65.0513 73.0904 65.4504 73.3754 65.6784C73.5465 65.7924 73.7175 65.8494 73.8886 65.8494C74.0596 65.8494 74.2306 65.7924 74.3447 65.7354L78.6776 63.1699L83.0106 65.7354C83.3526 65.9065 83.7517 65.9065 84.0368 65.6784C84.3218 65.4504 84.4929 65.1083 84.3789 64.7092L83.2386 59.8061L87.0014 56.4994C87.4575 56.2713 87.5716 55.8722 87.4575 55.5302Z" fill="#FFC107"/>
</g>
<defs>
<clipPath id="clip0_5872_36161">
<rect width="200" height="224.002" fill="white"/>
</clipPath>
</defs>
</svg>
