<?xml version="1.0" encoding="UTF-8"?><svg width="145" height="40" viewBox="0 0 145 40" fill="none" xmlns="http://www.w3.org/2000/svg"><path fill-rule="evenodd" clip-rule="evenodd" d="M61.5137 13.1997H58.8055L53.0918 26.6833H56.0855L57.3042 23.6807H62.9502L64.1689 26.6833H67.2333L61.5137 13.1997ZM60.1275 16.7393L61.8938 21.0792H58.3613L60.1275 16.7393Z" fill="#1976D3"/><path fill-rule="evenodd" clip-rule="evenodd" d="M73.2984 19.8753L68.8388 13.2974H72.2711L75.0734 17.6374L77.8963 13.2974H81.2314L76.7601 19.8369L81.4139 26.6835H77.9905L74.9939 22.0955L71.9826 26.6835H68.6475L73.2984 19.8753Z" fill="#1976D3"/><path fill-rule="evenodd" clip-rule="evenodd" d="M89.5365 13.2974H84.332V26.6835H89.5365C93.7312 26.6835 96.6308 23.7961 96.6308 19.9905C96.6308 16.1848 93.7312 13.2974 89.5365 13.2974ZM93.5612 19.992C93.5612 22.4014 91.9392 24.0284 89.5372 24.0284H87.2676V15.9556H89.5372C91.9392 15.9556 93.5612 17.5825 93.5612 19.992Z" fill="#1976D3"/><path fill-rule="evenodd" clip-rule="evenodd" d="M106.648 13.0669C102.53 13.0669 99.5361 16.1846 99.5361 19.9903C99.5361 23.8343 102.483 26.9136 106.601 26.9136C110.719 26.9136 113.713 23.8343 113.713 19.9903C113.713 16.1462 110.766 13.0669 106.648 13.0669ZM106.608 15.7842C108.972 15.7842 110.65 17.6976 110.65 19.9919C110.65 22.3245 109.01 24.2084 106.646 24.2084C104.282 24.2084 102.604 22.3245 102.604 19.9919C102.604 17.6592 104.244 15.7842 106.608 15.7842Z" fill="#1976D3"/><path fill-rule="evenodd" clip-rule="evenodd" d="M116.624 13.2822H119.788L123.297 18.9449L126.803 13.2822H129.968V26.6743H127.051V17.9352L123.297 23.651H123.221L119.503 18.0061V26.6743H116.624V13.2822Z" fill="#1976D3"/><path fill-rule="evenodd" clip-rule="evenodd" d="M134.308 13.2822H144.466V15.904H137.225V18.6202H143.518V21.2537H137.225V24.0673H144.466V26.6861H134.308V13.2822Z" fill="#1976D3"/><path fill-rule="evenodd" clip-rule="evenodd" d="M7.71866 14.8442H7.5332V15.0302V17.0467V17.2327H7.71866H10.5505V24.9707V25.1567H10.7359H12.9143H13.0997V24.9707V17.2327H15.9315H16.117V17.0467V15.0302V14.8442H15.9315H7.71866Z" fill="#004392"/><path fill-rule="evenodd" clip-rule="evenodd" d="M19.1035 14.8442H23.154C26.3126 14.8442 28.6057 17.0112 28.6057 19.999C28.6057 22.9868 26.3126 25.1567 23.154 25.1567H19.1035V14.8442ZM21.6523 22.8149H23.1536V22.809C24.8286 22.809 25.9531 21.6929 25.9531 20.0129C25.9531 18.3329 24.8286 17.2051 23.1536 17.2051H21.6523V22.8149Z" fill="#004392"/><path fill-rule="evenodd" clip-rule="evenodd" d="M27.2945 7.782C28.496 7.782 29.4699 6.80519 29.4699 5.60023C29.4699 4.39527 28.496 3.41846 27.2945 3.41846C26.0931 3.41846 25.1191 4.39527 25.1191 5.60023C25.1191 6.80519 26.0931 7.782 27.2945 7.782Z" fill="#004392"/><path fill-rule="evenodd" clip-rule="evenodd" d="M45.7752 16.0136H41.7129V13.2974H52.7723V16.0136H48.713V26.6835H45.7693L45.7752 16.0136Z" fill="#1976D3"/><path fill-rule="evenodd" clip-rule="evenodd" d="M33.811 8.47724L32.0772 7.47343C31.8964 7.93744 31.6485 8.37219 31.3412 8.76363L33.0692 9.76449C33.8925 10.2433 34.4002 11.1247 34.4027 12.0792V27.9217C34.4008 28.8764 33.8929 29.758 33.0692 30.2364L19.3899 38.1577C18.5644 38.6343 17.5484 38.6343 16.7229 38.1577L3.04359 30.2364C2.21534 29.761 1.70261 28.8788 1.69832 27.9217V12.0792C1.70078 11.1247 2.20854 10.2433 3.03181 9.76449L16.7111 1.8432C17.5366 1.3666 18.5526 1.3666 19.3781 1.8432L22.5808 3.68845C22.7662 3.22721 23.0192 2.79632 23.3315 2.41006L20.1317 0.555958C18.8479 -0.185319 17.2678 -0.185319 15.984 0.555958L2.30472 8.47724C1.02807 9.22491 0.243454 10.5964 0.244141 12.0792V27.9217C0.246503 29.4075 1.03712 30.7797 2.31944 31.5237L15.9988 39.445C17.2828 40.185 18.8623 40.185 20.1464 39.445L33.8257 31.5237C35.1019 30.7756 35.8864 29.4043 35.8863 27.9217V12.0792C35.8833 10.5936 35.0929 9.22162 33.811 8.47724Z" fill="#1976D3"/></svg>
