<svg width="36" height="36" viewBox="0 0 36 36" fill="none" xmlns="http://www.w3.org/2000/svg">
<g clip-path="url(#clip0_3858_217141)">
<path d="M27.4929 9.49109C27.4929 4.25742 23.2355 0 18.0018 0C12.7682 0 8.51074 4.25742 8.51074 9.49109C8.51074 14.7248 12.7682 18.9822 18.0018 18.9822C23.2355 18.9822 27.4929 14.7248 27.4929 9.49109ZM13.9823 15.0646L14.7444 10.6239L11.5179 7.47976L15.9761 6.82993L17.9709 2.79087L19.9647 6.82993L24.4249 7.47877L21.1974 10.6239L21.9595 15.0646L17.9709 12.9679L13.9823 15.0646Z" fill="#1976D3"/>
<path d="M18.5647 8.75753L17.9715 7.55469L17.3773 8.75753L16.0498 8.95016L17.0107 9.88626L16.7841 11.2086L17.9715 10.5845L19.1589 11.2086L18.9324 9.88626L19.8922 8.95114L18.5647 8.75753Z" fill="black"/>
<path d="M16.875 36.0007V27.4169C16.875 25.9999 16.2972 24.625 15.291 23.6456C15.0786 23.4391 12.1409 20.5849 12.3535 20.7914C10.6875 19.1256 7.98663 19.1254 6.32056 20.7914C6.58687 21.0577 11.8246 26.2955 11.6072 26.0781L10.1161 27.5694L4.22022 21.6735C4.22022 21.362 4.22022 12.2523 4.22022 12.8003C4.22022 10.4705 2.33163 8.58203 0.00195312 8.58203C0.00195312 9.03493 0.00195312 21.8493 0.00195312 21.5746C0.00195312 22.657 0.338711 23.7054 0.975036 24.6065L5.7506 31.3912C6.12343 31.903 6.32928 32.5446 6.32935 33.1955V36.0007H16.875Z" fill="#004392"/>
<path d="M29.6705 33.1955C29.6707 32.5446 29.8765 31.903 30.2493 31.3912L35.0248 24.6065C35.6612 23.7054 35.9981 22.657 35.9981 21.5746C35.9981 21.8493 35.9981 9.03493 35.9981 8.58203C33.6683 8.58203 31.7797 10.4705 31.7798 12.8003C31.7798 12.2523 31.7798 21.362 31.7798 21.6735L25.8839 27.5694L24.3927 26.0781C24.1752 26.2956 29.4131 21.0578 29.6793 20.7914C28.0134 19.1254 25.3124 19.1256 23.6464 20.7914C23.8589 20.5849 20.9214 23.4391 20.7089 23.6456C19.7027 24.625 19.125 25.9998 19.125 27.4169V36.0007H29.6705V33.1955Z" fill="#004392"/>
</g>
<defs>
<clipPath id="clip0_3858_217141">
<rect width="36" height="36" fill="white"/>
</clipPath>
</defs>
</svg>
