<svg width="36" height="36" viewBox="0 0 36 36" fill="none" xmlns="http://www.w3.org/2000/svg">
<g clip-path="url(#clip0_3858_217147)">
<path d="M15.75 9.375V3.0375C15.624 3.027 15.504 3 15.375 3H2.625C1.1775 3 0 4.1775 0 5.625V16.875C0 17.289 0.228 17.67 0.594 17.8665C0.7605 17.9565 0.942 18 1.125 18C1.3425 18 1.56 17.937 1.7475 17.8125L5.511 15.312C5.805 15.111 6.1695 15 6.54 15H15.375C16.5645 15 17.6295 14.487 18.384 13.6785C16.827 12.864 15.75 11.25 15.75 9.375Z" fill="#1976D3"/>
<path d="M34.875 15C34.656 15 34.44 14.937 34.251 14.811L30.507 12.315C30.198 12.108 29.8395 12 29.4675 12H20.625C19.1775 12 18 10.8225 18 9.375V2.625C18 1.1775 19.1775 0 20.625 0H33.375C34.8225 0 36 1.1775 36 2.625V13.875C36 14.289 35.772 14.6715 35.406 14.8665C35.2395 14.9565 35.0565 15 34.875 15Z" fill="#1976D3"/>
<path d="M8.25 27C10.7353 27 12.75 24.9853 12.75 22.5C12.75 20.0147 10.7353 18 8.25 18C5.76472 18 3.75 20.0147 3.75 22.5C3.75 24.9853 5.76472 27 8.25 27Z" fill="#004392"/>
<path d="M27.75 27C30.2353 27 32.25 24.9853 32.25 22.5C32.25 20.0147 30.2353 18 27.75 18C25.2647 18 23.25 20.0147 23.25 22.5C23.25 24.9853 25.2647 27 27.75 27Z" fill="#004392"/>
<path d="M12.375 28.5H4.125C1.8495 28.5 0 30.3495 0 32.625V34.875C0 35.496 0.504 36 1.125 36H15.375C15.996 36 16.5 35.496 16.5 34.875V32.625C16.5 30.3495 14.6505 28.5 12.375 28.5Z" fill="#004392"/>
<path d="M31.875 28.5H23.625C21.3495 28.5 19.5 30.3495 19.5 32.625V34.875C19.5 35.496 20.004 36 20.625 36H34.875C35.496 36 36 35.496 36 34.875V32.625C36 30.3495 34.1505 28.5 31.875 28.5Z" fill="#004392"/>
</g>
<defs>
<clipPath id="clip0_3858_217147">
<rect width="36" height="36" fill="white"/>
</clipPath>
</defs>
</svg>
